<svg width="329" height="316" viewBox="0 0 329 316" fill="none" xmlns="http://www.w3.org/2000/svg">
<path d="M173.262 141.026H77.7472L84.8096 77.486H181.134L173.262 141.026Z" fill="#263238"/>
<path d="M168.405 141.026H72.881L79.9434 77.486H176.268L168.405 141.026Z" fill="#455A64"/>
<path d="M164.856 138.146H76.2227L82.777 79.191H172.16L164.856 138.146Z" fill="#F5F5F5"/>
<path d="M85.8346 128.318C85.7054 128.318 86.5839 119.43 87.7983 108.508C89.0127 97.5854 90.0806 88.722 90.2012 88.7381C90.3218 88.7542 89.4519 97.5854 88.2375 108.548C87.0231 119.511 85.9551 128.326 85.8346 128.318Z" fill="#263238"/>
<path d="M101.966 90.7083C99.0081 90.9867 96.0274 90.9867 93.0693 90.7083C96.0274 90.4299 99.0081 90.4299 101.966 90.7083Z" fill="#263238"/>
<path d="M139.828 90.7083C139.828 90.8208 131.895 90.9171 122.103 90.9171C112.31 90.9171 104.386 90.8208 104.386 90.7083C104.386 90.5959 112.319 90.4995 122.103 90.4995C131.887 90.4995 139.828 90.5959 139.828 90.7083Z" fill="#BA68C8"/>
<path d="M100.924 111.66C97.9631 111.939 94.9796 111.939 92.0186 111.66C94.9796 111.382 97.9631 111.382 100.924 111.66Z" fill="#263238"/>
<path d="M138.777 111.66C138.777 111.781 130.845 111.869 121.061 111.869C111.277 111.869 103.336 111.781 103.336 111.66C103.336 111.54 111.268 111.452 121.061 111.452C130.853 111.452 138.777 111.548 138.777 111.66Z" fill="#BA68C8"/>
<path d="M126.702 121.32C126.702 121.432 118.77 121.529 108.986 121.529C99.2015 121.529 91.2606 121.432 91.2606 121.32C91.2606 121.207 99.1929 121.111 108.986 121.111C118.778 121.111 126.702 121.207 126.702 121.32Z" fill="#BA68C8"/>
<path d="M105.928 96.6198C103.85 96.8364 101.757 96.9089 99.6667 96.8367C97.5766 96.9089 95.4837 96.8364 93.4052 96.6198C95.4845 96.4134 97.5768 96.3436 99.6667 96.411C101.756 96.3436 103.849 96.4134 105.928 96.6198Z" fill="#BA68C8"/>
<path d="M105.575 105.298C103.496 105.505 101.403 105.574 99.3135 105.507C97.2237 105.574 95.1314 105.505 93.0521 105.298C95.131 105.087 97.2237 105.017 99.3135 105.089C101.403 105.017 103.496 105.087 105.575 105.298Z" fill="#BA68C8"/>
<path d="M116.16 117.693C114.081 117.899 111.988 117.969 109.899 117.901C107.809 117.969 105.716 117.899 103.637 117.693C105.716 117.481 107.809 117.411 109.899 117.484C111.988 117.411 114.081 117.481 116.16 117.693Z" fill="#BA68C8"/>
<path d="M151.429 96.6199C151.429 96.7404 144.272 96.8368 135.444 96.8368C126.616 96.8368 119.45 96.7404 119.45 96.6199C119.45 96.4995 126.607 96.4111 135.444 96.4111C144.281 96.4111 151.429 96.5075 151.429 96.6199Z" fill="#263238"/>
<path d="M141.559 105.797C141.559 105.917 134.402 106.006 125.574 106.006C116.746 106.006 109.58 105.917 109.58 105.797C109.58 105.676 116.737 105.588 125.574 105.588C134.41 105.588 141.559 105.685 141.559 105.797Z" fill="#263238"/>
<path d="M152.566 117.693C152.566 117.805 145.409 117.901 136.581 117.901C127.753 117.901 120.57 117.797 120.57 117.693C120.57 117.588 127.727 117.484 136.564 117.484C145.4 117.484 152.566 117.572 152.566 117.693Z" fill="#263238"/>
<path d="M123.369 128.317C123.369 128.43 116.203 128.526 107.375 128.526C98.547 128.526 91.3812 128.43 91.3812 128.317C91.3812 128.205 98.547 128.108 107.375 128.108C116.203 128.108 123.369 128.197 123.369 128.317Z" fill="#263238"/>
<path d="M158.733 128.317C158.733 128.43 151.576 128.526 142.748 128.526C133.919 128.526 126.754 128.43 126.754 128.317C126.754 128.205 133.911 128.108 142.748 128.108C151.584 128.108 158.733 128.197 158.733 128.317Z" fill="#263238"/>
<path d="M123.36 131.768C123.36 131.888 116.203 131.977 107.375 131.977C98.547 131.977 91.3812 131.888 91.3812 131.768C91.3812 131.647 98.5384 131.559 107.375 131.559C116.212 131.559 123.36 131.655 123.36 131.768Z" fill="#263238"/>
<path d="M124.919 99.1133C124.919 99.2257 117.762 99.3221 108.934 99.3221C100.106 99.3221 92.9401 99.2257 92.9401 99.1133C92.9401 99.0009 100.097 98.9045 108.934 98.9045C117.771 98.9045 124.919 99.0009 124.919 99.1133Z" fill="#263238"/>
<path d="M116.393 96.6601C113.653 96.9386 110.889 96.9386 108.15 96.6601C110.889 96.3711 113.654 96.3711 116.393 96.6601Z" fill="#455A64"/>
<path d="M99.8992 114.507C97.1627 114.786 94.4019 114.786 91.6654 114.507C94.4019 114.229 97.1627 114.229 99.8992 114.507Z" fill="#455A64"/>
<path d="M99.6752 117.693C96.9388 117.971 94.1779 117.971 91.4415 117.693C94.1779 117.414 96.9388 117.414 99.6752 117.693Z" fill="#455A64"/>
<path d="M171.049 85.4884C171.049 85.6008 151.119 85.6972 126.53 85.6972C101.94 85.6972 82.0105 85.6008 82.0105 85.4884C82.0105 85.376 101.94 85.2716 126.53 85.2716C151.119 85.2716 171.049 85.3679 171.049 85.4884Z" fill="#263238"/>
<path d="M89.0729 82.6737C89.0729 82.8697 89.0106 83.0613 88.8938 83.2241C88.777 83.387 88.6111 83.5138 88.417 83.5884C88.2229 83.6631 88.0094 83.6822 87.8037 83.6433C87.598 83.6045 87.4093 83.5095 87.2615 83.3703C87.1136 83.2312 87.0134 83.0541 86.9735 82.8617C86.9336 82.6693 86.9559 82.4701 87.0374 82.2895C87.1189 82.1089 87.256 81.9549 87.4313 81.8472C87.6067 81.7395 87.8123 81.6828 88.0222 81.6844C88.1609 81.6844 88.2983 81.7101 88.4263 81.7599C88.5544 81.8097 88.6706 81.8827 88.7683 81.9747C88.8659 82.0666 88.9432 82.1758 88.9955 82.2957C89.0478 82.4157 89.0741 82.5442 89.0729 82.6737Z" fill="white"/>
<path d="M93.6032 82.6737C93.6032 82.8697 93.5409 83.0613 93.4241 83.2241C93.3073 83.387 93.1413 83.5138 92.9473 83.5884C92.7532 83.6631 92.5397 83.6822 92.334 83.6433C92.1283 83.6045 91.9395 83.5095 91.7917 83.3703C91.6439 83.2312 91.5437 83.0541 91.5038 82.8617C91.4639 82.6693 91.4861 82.4701 91.5676 82.2895C91.6491 82.1089 91.7862 81.9549 91.9616 81.8472C92.1369 81.7395 92.3426 81.6828 92.5525 81.6844C92.6912 81.6844 92.8285 81.7101 92.9566 81.7599C93.0846 81.8097 93.2008 81.8827 93.2985 81.9747C93.3962 82.0666 93.4734 82.1758 93.5257 82.2957C93.578 82.4157 93.6044 82.5442 93.6032 82.6737Z" fill="white"/>
<path d="M98.1766 82.6737C98.1766 82.8697 98.1143 83.0613 97.9975 83.2241C97.8807 83.387 97.7147 83.5138 97.5206 83.5884C97.3266 83.6631 97.1131 83.6822 96.9074 83.6433C96.7017 83.6045 96.5129 83.5095 96.3651 83.3703C96.2173 83.2312 96.1171 83.0541 96.0772 82.8617C96.0373 82.6693 96.0595 82.4701 96.141 82.2895C96.2225 82.1089 96.3596 81.9549 96.535 81.8472C96.7103 81.7395 96.916 81.6828 97.1259 81.6844C97.2646 81.6844 97.4019 81.7101 97.53 81.7599C97.658 81.8097 97.7742 81.8827 97.8719 81.9747C97.9696 82.0666 98.0468 82.1758 98.0991 82.2957C98.1514 82.4157 98.1778 82.5442 98.1766 82.6737Z" fill="white"/>
<path d="M298.741 142.956H198.265L205.689 76.1106H307.027L298.741 142.956Z" fill="#263238"/>
<path d="M293.625 142.956H193.149L200.582 76.1106H301.911L293.625 142.956Z" fill="#455A64"/>
<path d="M289.905 139.924H196.672L203.562 77.9042H297.587L289.905 139.924Z" fill="#EBEBEB"/>
<path d="M206.826 128.647C206.706 128.647 207.636 119.301 208.902 107.808C210.168 96.3147 211.305 87.0009 211.426 87.017C211.546 87.0331 210.616 96.3549 209.35 107.856C208.084 119.358 206.947 128.655 206.826 128.647Z" fill="#263238"/>
<path d="M223.802 89.0917C220.688 89.3701 217.553 89.3701 214.44 89.0917C217.553 88.8026 220.689 88.8026 223.802 89.0917Z" fill="#263238"/>
<path d="M263.627 89.0917C263.627 89.2041 255.282 89.3005 244.981 89.3005C234.68 89.3005 226.343 89.2041 226.343 89.0917C226.343 88.9793 234.689 88.8749 244.981 88.8749C255.273 88.8749 263.627 88.9713 263.627 89.0917Z" fill="#BA68C8"/>
<path d="M222.7 111.13C219.586 111.408 216.451 111.408 213.338 111.13C216.451 110.851 219.586 110.851 222.7 111.13Z" fill="#263238"/>
<path d="M262.525 111.13C262.525 111.242 254.171 111.338 243.878 111.338C233.586 111.338 225.24 111.242 225.24 111.13C225.24 111.017 233.586 110.921 243.878 110.921C254.171 110.921 262.525 111.017 262.525 111.13Z" fill="#BA68C8"/>
<path d="M249.821 121.288C249.821 121.408 241.475 121.497 231.183 121.497C220.891 121.497 212.536 121.408 212.536 121.288C212.536 121.167 220.882 121.079 231.183 121.079C241.484 121.079 249.821 121.175 249.821 121.288Z" fill="#BA68C8"/>
<path d="M227.927 95.2768C223.543 95.5552 219.143 95.5552 214.759 95.2768C219.143 94.9984 223.543 94.9984 227.927 95.2768Z" fill="#BA68C8"/>
<path d="M227.592 104.43C223.207 104.719 218.807 104.719 214.423 104.43C218.807 104.151 223.207 104.151 227.592 104.43Z" fill="#BA68C8"/>
<path d="M238.728 117.475C234.343 117.754 229.944 117.754 225.559 117.475C229.944 117.197 234.343 117.197 238.728 117.475Z" fill="#BA68C8"/>
<path d="M275.832 95.2768C275.832 95.3972 268.304 95.4856 259.011 95.4856C249.718 95.4856 242.19 95.3972 242.19 95.2768C242.19 95.1563 249.718 95.068 259.011 95.068C268.304 95.068 275.832 95.1965 275.832 95.2768Z" fill="#263238"/>
<path d="M265.453 104.928C265.453 105.049 257.917 105.137 248.632 105.137C239.348 105.137 231.812 105.049 231.812 104.928C231.812 104.808 239.339 104.72 248.632 104.72C257.926 104.72 265.453 104.848 265.453 104.928Z" fill="#263238"/>
<path d="M277.029 117.475C277.029 117.588 269.493 117.684 260.208 117.684C250.923 117.684 243.387 117.588 243.387 117.475C243.387 117.363 250.915 117.267 260.208 117.267C269.501 117.267 277.029 117.355 277.029 117.475Z" fill="#263238"/>
<path d="M246.316 128.647C246.316 128.76 238.788 128.856 229.495 128.856C220.202 128.856 212.674 128.76 212.674 128.647C212.674 128.535 220.21 128.438 229.495 128.438C238.78 128.438 246.316 128.535 246.316 128.647Z" fill="#263238"/>
<path d="M283.514 128.647C283.514 128.76 275.978 128.856 266.693 128.856C257.409 128.856 249.873 128.76 249.873 128.647C249.873 128.535 257.4 128.438 266.693 128.438C275.987 128.438 283.514 128.535 283.514 128.647Z" fill="#263238"/>
<path d="M246.316 132.274C246.316 132.387 238.788 132.483 229.495 132.483C220.202 132.483 212.674 132.387 212.674 132.274C212.674 132.162 220.202 132.066 229.495 132.066C238.788 132.066 246.316 132.17 246.316 132.274Z" fill="#263238"/>
<path d="M247.943 97.9309C247.943 98.0433 240.416 98.1397 231.123 98.1397C221.83 98.1397 214.302 98.0433 214.302 97.9309C214.302 97.8185 221.83 97.7221 231.123 97.7221C240.416 97.7221 247.943 97.8185 247.943 97.9309Z" fill="#263238"/>
<path d="M238.969 95.341C236.089 95.6194 233.185 95.6194 230.305 95.341C233.185 95.0626 236.089 95.0626 238.969 95.341Z" fill="#455A64"/>
<path d="M221.597 114.121C218.717 114.4 215.813 114.4 212.933 114.121C215.813 113.843 218.717 113.843 221.597 114.121Z" fill="#455A64"/>
<path d="M221.39 117.475C218.51 117.754 215.606 117.754 212.726 117.475C215.606 117.197 218.51 117.197 221.39 117.475Z" fill="#455A64"/>
<path d="M296.468 83.5903C296.468 83.7108 275.504 83.7991 249.64 83.7991C223.776 83.7991 202.813 83.7108 202.813 83.5903C202.813 83.4699 223.776 83.3815 249.64 83.3815C275.504 83.3815 296.468 83.4779 296.468 83.5903Z" fill="#263238"/>
<path d="M210.237 80.6388C210.237 80.844 210.172 81.0446 210.05 81.2153C209.928 81.3859 209.754 81.5189 209.551 81.5974C209.348 81.6759 209.125 81.6965 208.909 81.6564C208.694 81.6164 208.496 81.5176 208.34 81.3725C208.185 81.2274 208.079 81.0425 208.036 80.8413C207.993 80.64 208.015 80.4314 208.099 80.2418C208.184 80.0522 208.326 79.8902 208.509 79.7761C208.691 79.6621 208.906 79.6013 209.126 79.6013C209.272 79.6002 209.417 79.6263 209.552 79.6781C209.688 79.7299 209.811 79.8062 209.914 79.9028C210.017 79.9993 210.099 80.1142 210.155 80.2405C210.21 80.3669 210.238 80.5023 210.237 80.6388Z" fill="white"/>
<path d="M215 80.6388C215 80.844 214.935 81.0446 214.813 81.2153C214.69 81.3859 214.517 81.5189 214.314 81.5974C214.111 81.6759 213.888 81.6965 213.672 81.6564C213.456 81.6164 213.259 81.5176 213.103 81.3725C212.948 81.2274 212.842 81.0425 212.799 80.8413C212.756 80.64 212.778 80.4314 212.862 80.2418C212.946 80.0522 213.089 79.8902 213.271 79.7761C213.454 79.6621 213.669 79.6013 213.889 79.6013C214.035 79.6002 214.18 79.6263 214.315 79.6781C214.451 79.7299 214.574 79.8062 214.677 79.9028C214.78 79.9993 214.862 80.1142 214.918 80.2405C214.973 80.3669 215.001 80.5023 215 80.6388Z" fill="white"/>
<path d="M219.771 80.6388C219.771 80.844 219.706 81.0446 219.584 81.2153C219.462 81.3859 219.288 81.5189 219.085 81.5974C218.882 81.6759 218.659 81.6965 218.443 81.6564C218.228 81.6164 218.03 81.5176 217.875 81.3725C217.719 81.2274 217.613 81.0425 217.57 80.8413C217.528 80.64 217.55 80.4314 217.634 80.2418C217.718 80.0522 217.86 79.8902 218.043 79.7761C218.226 79.6621 218.44 79.6013 218.66 79.6013C218.806 79.6002 218.951 79.6263 219.087 79.6781C219.222 79.7299 219.345 79.8062 219.448 79.9028C219.552 79.9993 219.634 80.1142 219.689 80.2405C219.744 80.3669 219.772 80.5023 219.771 80.6388Z" fill="white"/>
<path d="M241.415 63.829H145.461L152.557 0H249.321L241.415 63.829Z" fill="#263238"/>
<path d="M236.532 63.829H140.577L147.674 0H244.438L236.532 63.829Z" fill="#455A64"/>
<path d="M232.966 60.9416H143.936L150.516 1.7131H240.304L232.966 60.9416Z" fill="#FAFAFA"/>
<path d="M153.72 51.0407C153.6 51.0407 154.487 42.113 155.701 31.1424C156.916 20.1718 157.992 11.2682 158.121 11.2843C158.25 11.3004 157.355 20.204 156.14 31.1826C154.926 42.1613 153.849 51.0407 153.72 51.0407Z" fill="#263238"/>
<path d="M169.938 13.2384C166.965 13.5168 163.97 13.5168 160.998 13.2384C163.97 12.96 166.965 12.96 169.938 13.2384Z" fill="#263238"/>
<path d="M207.963 13.2384C207.963 13.3508 199.996 13.4472 190.161 13.4472C180.325 13.4472 172.358 13.3508 172.358 13.2384C172.358 13.126 180.325 13.0296 190.161 13.0296C199.996 13.0296 207.963 13.1019 207.963 13.2384Z" fill="#BA68C8"/>
<path d="M168.879 34.2708C165.906 34.5492 162.911 34.5492 159.939 34.2708C162.911 33.9923 165.906 33.9923 168.879 34.2708Z" fill="#263238"/>
<path d="M206.912 34.2708C206.912 34.3832 198.937 34.4796 189.11 34.4796C179.283 34.4796 171.307 34.3832 171.307 34.2708C171.307 34.1583 179.274 34.062 189.11 34.062C198.946 34.062 206.912 34.1503 206.912 34.2708Z" fill="#BA68C8"/>
<path d="M194.786 43.9705C194.786 44.083 186.81 44.1793 176.983 44.1793C167.156 44.1793 159.181 44.083 159.181 43.9705C159.181 43.8581 167.147 43.7617 176.983 43.7617C186.819 43.7617 194.786 43.8581 194.786 43.9705Z" fill="#BA68C8"/>
<path d="M173.874 19.166C169.688 19.4445 165.486 19.4445 161.299 19.166C165.486 18.8876 169.688 18.8876 173.874 19.166Z" fill="#BA68C8"/>
<path d="M173.555 27.8766C169.369 28.155 165.167 28.155 160.981 27.8766C165.167 27.5982 169.369 27.5982 173.555 27.8766Z" fill="#BA68C8"/>
<path d="M184.183 40.3271C179.997 40.6055 175.795 40.6055 171.609 40.3271C175.795 40.0487 179.997 40.0487 184.183 40.3271Z" fill="#BA68C8"/>
<path d="M219.616 19.166C219.616 19.2785 212.425 19.3748 203.553 19.3748C194.682 19.3748 187.491 19.2785 187.491 19.166C187.491 19.0536 194.674 18.9572 203.553 18.9572C212.433 18.9572 219.616 19.0456 219.616 19.166Z" fill="#263238"/>
<path d="M209.703 28.3833C209.703 28.4957 202.511 28.5921 193.64 28.5921C184.769 28.5921 177.577 28.4957 177.577 28.3833C177.577 28.2709 184.769 28.1745 193.64 28.1745C202.511 28.1745 209.703 28.2628 209.703 28.3833Z" fill="#263238"/>
<path d="M220.762 40.3271C220.762 40.4396 213.57 40.5359 204.699 40.5359C195.828 40.5359 188.636 40.4396 188.636 40.3271C188.636 40.2147 195.828 40.1183 204.699 40.1183C213.57 40.1183 220.762 40.2067 220.762 40.3271Z" fill="#263238"/>
<path d="M191.427 51.0403C191.427 51.1527 184.235 51.2491 175.364 51.2491C166.493 51.2491 159.327 51.1126 159.327 51.0403C159.327 50.968 166.519 50.8315 175.39 50.8315C184.261 50.8315 191.427 50.8797 191.427 51.0403Z" fill="#263238"/>
<path d="M226.954 51.0403C226.954 51.1527 219.763 51.2491 210.891 51.2491C202.02 51.2491 194.829 51.1527 194.829 51.0403C194.829 50.9279 202.02 50.8315 210.891 50.8315C219.763 50.8315 226.954 50.8797 226.954 51.0403Z" fill="#263238"/>
<path d="M191.427 54.4667C191.427 54.5871 184.235 54.6755 175.364 54.6755C166.493 54.6755 159.301 54.5871 159.301 54.4667C159.301 54.3462 166.493 54.2579 175.364 54.2579C184.235 54.2579 191.427 54.3542 191.427 54.4667Z" fill="#263238"/>
<path d="M192.986 21.6674C192.986 21.7798 185.794 21.8762 176.923 21.8762C168.052 21.8762 160.86 21.7798 160.86 21.6674C160.86 21.5549 168.052 21.4586 176.923 21.4586C185.794 21.4586 192.986 21.5469 192.986 21.6674Z" fill="#263238"/>
<path d="M184.425 19.1982C181.674 19.4766 178.899 19.4766 176.148 19.1982C178.899 18.9198 181.674 18.9198 184.425 19.1982Z" fill="#455A64"/>
<path d="M167.828 37.126C165.077 37.4044 162.302 37.4044 159.551 37.126C162.302 36.8476 165.077 36.8476 167.828 37.126Z" fill="#455A64"/>
<path d="M167.638 40.3271C164.887 40.6055 162.112 40.6055 159.362 40.3271C162.112 40.0487 164.887 40.0487 167.638 40.3271Z" fill="#455A64"/>
<path d="M239.322 7.97018C239.322 8.09064 219.306 8.18702 194.613 8.18702C169.921 8.18702 149.853 8.09064 149.853 7.97018C149.853 7.84972 169.869 7.76138 194.579 7.76138C219.289 7.76138 239.322 7.85775 239.322 7.97018Z" fill="#263238"/>
<path d="M155.925 6.13687C156.51 6.13687 156.984 5.69395 156.984 5.14758C156.984 4.60122 156.51 4.15829 155.925 4.15829C155.34 4.15829 154.866 4.60122 154.866 5.14758C154.866 5.69395 155.34 6.13687 155.925 6.13687Z" fill="white"/>
<path d="M160.473 6.13687C161.058 6.13687 161.532 5.69395 161.532 5.14758C161.532 4.60122 161.058 4.15829 160.473 4.15829C159.887 4.15829 159.413 4.60122 159.413 5.14758C159.413 5.69395 159.887 6.13687 160.473 6.13687Z" fill="white"/>
<path d="M165.02 6.13687C165.605 6.13687 166.079 5.69395 166.079 5.14758C166.079 4.60122 165.605 4.15829 165.02 4.15829C164.435 4.15829 163.961 4.60122 163.961 5.14758C163.961 5.69395 164.435 6.13687 165.02 6.13687Z" fill="white"/>
<path d="M78.8668 304.949H71.391V314.472H78.8668V304.949Z" fill="#263238"/>
<path d="M118.942 193.828H185.269V190.811H118.942V193.828Z" fill="#263238"/>
<path d="M195.544 193.828L207.989 150.291H156.192L144.927 193.828H195.544Z" fill="#263238"/>
<path d="M148.036 190.538H194.303L205.069 152.302H158.56L148.036 190.538Z" fill="#F5F5F5"/>
<path d="M159.715 159.709L156.847 170.535H187.525L190.798 159.709H159.715Z" fill="#E0E0E0"/>
<path d="M184.304 158.277C184.304 158.398 178.93 158.486 172.289 158.486C165.649 158.486 160.274 158.398 160.274 158.277C160.274 158.157 165.649 158.068 172.289 158.068C178.93 158.068 184.304 158.165 184.304 158.277Z" fill="#455A64"/>
<path d="M170.343 161.776C167.12 162.054 163.876 162.054 160.653 161.776C163.876 161.498 167.12 161.498 170.343 161.776Z" fill="#263238"/>
<path d="M178.111 161.607C176.02 161.885 173.898 161.885 171.807 161.607C173.898 161.329 176.02 161.329 178.111 161.607Z" fill="#263238"/>
<path d="M186.888 163.738C186.888 163.859 180.954 163.955 173.633 163.955C166.312 163.955 160.378 163.859 160.378 163.738C160.378 163.618 166.312 163.53 173.633 163.53C180.954 163.53 186.888 163.642 186.888 163.738Z" fill="#455A64"/>
<path d="M168.422 165.532C165.559 165.812 162.672 165.812 159.809 165.532C162.672 165.252 165.559 165.252 168.422 165.532Z" fill="#BA68C8"/>
<path d="M184.511 168.098C184.511 168.21 179.007 168.307 172.22 168.307C165.433 168.307 159.921 168.21 159.921 168.098C159.921 167.985 165.425 167.889 172.22 167.889C179.016 167.889 184.511 167.977 184.511 168.098Z" fill="#455A64"/>
<path d="M166.415 173.639C163.264 173.916 160.092 173.916 156.941 173.639C160.092 173.363 163.264 173.363 166.415 173.639Z" fill="#455A64"/>
<path d="M174.546 173.679C173.477 173.874 172.385 173.936 171.299 173.864C170.212 173.926 169.122 173.845 168.06 173.623C169.129 173.429 170.221 173.367 171.307 173.439C172.394 173.377 173.484 173.458 174.546 173.679Z" fill="#263238"/>
<path d="M179.136 173.47C179.136 173.591 178.516 173.679 177.758 173.679C177 173.679 176.389 173.591 176.389 173.47C176.389 173.35 177.009 173.262 177.758 173.262C178.508 173.262 179.136 173.358 179.136 173.47Z" fill="#263238"/>
<path d="M160.111 175.859C160.111 175.98 159.43 176.068 158.595 176.068C157.76 176.068 157.088 175.98 157.088 175.859C157.088 175.739 157.768 175.65 158.595 175.65C159.422 175.65 160.111 175.747 160.111 175.859Z" fill="#BA68C8"/>
<path d="M169.154 175.859C166.758 176.138 164.333 176.138 161.937 175.859C164.333 175.581 166.758 175.581 169.154 175.859Z" fill="#263238"/>
<path d="M190.72 175.602C190.72 175.722 186.414 175.811 181.083 175.811C175.752 175.811 171.437 175.722 171.437 175.602C171.437 175.481 175.743 175.393 181.083 175.393C186.423 175.393 190.72 175.489 190.72 175.602Z" fill="#455A64"/>
<path d="M159.646 178.167C159.646 178.28 158.957 178.376 158.095 178.376C157.234 178.376 156.545 178.28 156.545 178.167C156.545 178.055 157.234 177.959 158.095 177.959C158.957 177.959 159.646 178.047 159.646 178.167Z" fill="#263238"/>
<path d="M164.4 178.119C163.804 178.326 163.163 178.398 162.531 178.328C161.896 178.397 161.253 178.326 160.653 178.119C161.254 177.917 161.896 177.846 162.531 177.91C163.163 177.845 163.802 177.917 164.4 178.119Z" fill="#263238"/>
<path d="M178.568 177.91C174.522 178.189 170.461 178.189 166.415 177.91C170.461 177.632 174.522 177.632 178.568 177.91Z" fill="#455A64"/>
<path d="M171.075 181.924C168.63 182.13 166.173 182.2 163.719 182.132C161.265 182.2 158.809 182.13 156.364 181.924C158.809 181.712 161.265 181.642 163.719 181.715C166.173 181.642 168.63 181.712 171.075 181.924Z" fill="#455A64"/>
<path d="M179.662 181.747C177.45 182.025 175.207 182.025 172.995 181.747C175.207 181.468 177.45 181.468 179.662 181.747Z" fill="#BA68C8"/>
<path d="M192.417 181.747C188.737 182.025 185.039 182.025 181.358 181.747C185.039 181.468 188.737 181.468 192.417 181.747Z" fill="#263238"/>
<path d="M189.472 158.108C189.472 158.229 188.955 158.317 188.326 158.317C187.697 158.317 187.181 158.229 187.181 158.108C187.181 157.988 187.697 157.9 188.326 157.9C188.955 157.9 189.472 158.012 189.472 158.108Z" fill="#263238"/>
<path d="M166.14 156.661C164.476 156.939 162.773 156.939 161.11 156.661C162.773 156.382 164.476 156.382 166.14 156.661Z" fill="#BA68C8"/>
<path d="M204.294 155.052H157.785L158.569 152.302H205.078L204.294 155.052Z" fill="#EBEBEB"/>
<path d="M160.523 154.166C160.804 154.166 161.031 153.954 161.031 153.692C161.031 153.431 160.804 153.219 160.523 153.219C160.243 153.219 160.016 153.431 160.016 153.692C160.016 153.954 160.243 154.166 160.523 154.166Z" fill="#FAFAFA"/>
<path d="M162.272 154.166C162.552 154.166 162.779 153.954 162.779 153.692C162.779 153.431 162.552 153.219 162.272 153.219C161.992 153.219 161.764 153.431 161.764 153.692C161.764 153.954 161.992 154.166 162.272 154.166Z" fill="#FAFAFA"/>
<path d="M164.02 154.166C164.3 154.166 164.528 153.954 164.528 153.692C164.528 153.431 164.3 153.219 164.02 153.219C163.74 153.219 163.513 153.431 163.513 153.692C163.513 153.954 163.74 154.166 164.02 154.166Z" fill="#FAFAFA"/>
<path d="M260.975 197.881H150.697V257.97H260.975V197.881Z" fill="#263238"/>
<path d="M200.935 197.881H150.697V257.97H200.935V197.881Z" fill="#455A64"/>
<path d="M195.819 218.286C195.806 218.185 195.806 218.082 195.819 217.981V217.104C195.819 216.3 195.819 215.198 195.776 213.766C195.776 210.863 195.724 206.712 195.69 201.597L195.854 201.75L155.443 201.806L155.667 201.597V205.932C155.667 207.364 155.667 208.787 155.667 210.179C155.667 212.97 155.667 215.68 155.667 218.27L155.46 218.077L184.407 218.166L192.813 218.222H195.07H195.664H195.871H195.69H195.122H192.908L184.545 218.27L155.46 218.367H155.245V218.166C155.245 215.576 155.245 212.865 155.245 210.074V201.613L155.468 201.404L195.879 201.46H196.043V201.613C196 206.769 195.974 210.951 195.948 213.871C195.948 215.286 195.948 216.396 195.948 217.176V218.029C195.828 218.198 195.819 218.335 195.819 218.286Z" fill="#263238"/>
<path d="M177.328 209.946C177.215 209.489 176.942 209.082 176.552 208.787C176.343 208.651 176.101 208.564 175.847 208.534C175.593 208.505 175.336 208.534 175.097 208.619C174.809 208.722 174.562 208.904 174.387 209.141C174.212 209.377 174.117 209.658 174.115 209.946C174.119 210.233 174.215 210.512 174.39 210.749C174.565 210.985 174.811 211.167 175.097 211.273C175.337 211.354 175.594 211.381 175.848 211.35C176.101 211.319 176.343 211.232 176.552 211.096C176.939 210.799 177.212 210.392 177.328 209.938C177.328 209.938 177.405 210.082 177.328 210.348C177.258 210.733 177.041 211.082 176.716 211.329C176.469 211.517 176.175 211.643 175.862 211.695C175.548 211.747 175.226 211.724 174.925 211.627C174.548 211.506 174.22 211.278 173.989 210.975C173.757 210.673 173.633 210.31 173.633 209.938C173.633 209.565 173.757 209.203 173.989 208.9C174.22 208.597 174.548 208.369 174.925 208.249C175.225 208.15 175.547 208.126 175.861 208.176C176.174 208.227 176.469 208.351 176.716 208.538C177.041 208.785 177.258 209.134 177.328 209.519C177.414 209.801 177.353 209.946 177.328 209.946Z" fill="#263238"/>
<path d="M195.819 236.664C195.807 236.56 195.807 236.455 195.819 236.351V235.474C195.819 234.67 195.819 233.568 195.776 232.136C195.776 229.241 195.724 225.091 195.69 219.967L195.854 220.12L155.443 220.184L155.667 219.975V224.31C155.667 225.75 155.667 227.166 155.667 228.565C155.667 231.356 155.667 234.067 155.667 236.656L155.46 236.455L184.407 236.552L192.813 236.608H195.07H195.664H195.871H195.69H195.122H192.908L184.545 236.664L155.46 236.761H155.245V236.56C155.245 233.97 155.245 231.26 155.245 228.469V219.983C155.193 219.983 155.667 219.581 155.468 219.766L195.879 219.83H196.043V219.943C196 225.107 195.974 229.289 195.948 232.209C195.948 233.624 195.948 234.726 195.948 235.514V236.359C195.828 236.576 195.819 236.672 195.819 236.664Z" fill="#263238"/>
<path d="M177.328 228.316C177.207 227.87 176.935 227.472 176.552 227.182C176.323 227.029 176.053 226.937 175.772 226.918C175.49 226.898 175.209 226.951 174.958 227.07C174.706 227.19 174.495 227.371 174.346 227.595C174.198 227.819 174.118 228.077 174.115 228.34C174.117 228.628 174.212 228.908 174.387 229.145C174.562 229.382 174.809 229.564 175.097 229.667C175.336 229.752 175.593 229.781 175.847 229.751C176.101 229.722 176.343 229.635 176.552 229.498C176.941 229.203 177.213 228.795 177.328 228.34C177.328 228.34 177.405 228.485 177.328 228.75C177.258 229.136 177.041 229.485 176.716 229.731C176.469 229.919 176.175 230.045 175.862 230.098C175.548 230.15 175.226 230.126 174.925 230.029C174.548 229.908 174.22 229.681 173.989 229.378C173.757 229.075 173.633 228.712 173.633 228.34C173.633 227.968 173.757 227.605 173.989 227.302C174.22 226.999 174.548 226.772 174.925 226.651C175.226 226.554 175.548 226.53 175.862 226.582C176.175 226.634 176.469 226.76 176.716 226.949C177.041 227.195 177.258 227.544 177.328 227.93C177.414 228.171 177.353 228.316 177.328 228.316Z" fill="#263238"/>
<path d="M195.819 255.035C195.806 254.933 195.806 254.83 195.819 254.729V253.852C195.819 253.048 195.819 251.946 195.776 250.514C195.776 247.611 195.724 243.461 195.69 238.345L195.854 238.498L155.443 238.554L155.667 238.345V242.681C155.667 244.112 155.667 245.536 155.667 246.927C155.667 249.718 155.667 252.429 155.667 255.018L155.46 254.825L184.407 254.914L192.813 254.97H195.07H195.664H195.871H195.69H195.122H192.908L184.545 255.018L155.46 255.115H155.245V254.914C155.245 252.324 155.245 249.614 155.245 246.823V238.361L155.468 238.152L195.879 238.209H196.043V238.361C196 243.517 195.974 247.699 195.948 250.619C195.948 252.035 195.948 253.144 195.948 253.925V254.777C195.828 254.946 195.819 255.043 195.819 255.035Z" fill="#263238"/>
<path d="M177.328 246.694C177.215 246.238 176.942 245.83 176.552 245.536C176.343 245.399 176.101 245.312 175.847 245.283C175.593 245.253 175.336 245.282 175.097 245.367C174.809 245.47 174.562 245.652 174.387 245.889C174.212 246.126 174.117 246.406 174.115 246.694C174.118 246.957 174.198 247.215 174.346 247.439C174.495 247.663 174.706 247.844 174.958 247.964C175.209 248.083 175.49 248.136 175.772 248.116C176.053 248.097 176.323 248.005 176.552 247.852C176.939 247.556 177.212 247.149 177.328 246.694C177.328 246.694 177.405 246.839 177.328 247.104C177.258 247.49 177.041 247.839 176.716 248.085C176.469 248.273 176.175 248.4 175.862 248.452C175.548 248.504 175.226 248.48 174.925 248.383C174.548 248.262 174.22 248.035 173.989 247.732C173.757 247.429 173.633 247.066 173.633 246.694C173.633 246.322 173.757 245.959 173.989 245.656C174.22 245.353 174.548 245.126 174.925 245.005C175.225 244.907 175.547 244.882 175.861 244.933C176.174 244.983 176.469 245.108 176.716 245.295C177.041 245.541 177.258 245.89 177.328 246.276C177.414 246.549 177.353 246.694 177.328 246.694Z" fill="#263238"/>
<path d="M77.2562 306.88L3.55707 306.823V197.881H77.2562V306.88Z" fill="#263238"/>
<path d="M264.979 193.691H0V199.401H264.979V193.691Z" fill="#263238"/>
<path d="M11.7736 199.401H3.55707V314.979H11.7736V199.401Z" fill="#263238"/>
<path d="M260.975 199.401H252.758V315.011H260.975V199.401Z" fill="#263238"/>
<path d="M209.152 199.401H200.935V315.011H209.152V199.401Z" fill="#263238"/>
<path d="M37.2587 193.69C37.2587 193.803 29.3608 193.899 19.6198 193.899C9.87883 193.899 1.98096 193.803 1.98096 193.69C1.98096 193.578 9.87883 193.482 19.6198 193.482C29.3608 193.482 37.2587 193.57 37.2587 193.69Z" fill="#455A64"/>
<path d="M114.739 309.349L114.946 301.089L98.366 300.622L97.9268 312.687L98.9517 312.775C103.516 313.145 122.206 314.335 125.281 313.579C128.726 312.711 114.739 309.349 114.739 309.349Z" fill="#BA68C8"/>
<g opacity="0.4">
<path d="M121.56 311.223C121.56 311.223 126.461 312.687 125.815 313.435C125.169 314.183 106.247 313.628 97.9268 312.711V312.365L120.001 313.169C120.001 313.169 120.57 311.231 121.56 311.223Z" fill="white"/>
</g>
<path d="M97.7029 312.349H97.9871L98.8484 312.421L101.854 312.63C104.395 312.791 107.883 312.96 111.793 313.081C115.703 313.201 119.2 313.225 121.75 313.217C119.209 313.217 115.721 313.137 111.802 313.024C107.883 312.912 104.404 312.759 101.863 312.63L98.8484 312.485H97.9871L97.7029 312.349Z" fill="#263238"/>
<path d="M120.018 313.41C120.166 312.947 120.371 312.502 120.63 312.083C120.942 311.7 121.297 311.35 121.689 311.038C121.187 311.229 120.758 311.559 120.46 311.982C120.162 312.406 120.008 312.904 120.018 313.41Z" fill="#263238"/>
<path d="M115.204 310.955C115.247 310.955 115.496 310.723 115.746 310.377C115.995 310.032 116.167 309.719 116.124 309.695C116.081 309.671 115.832 309.919 115.582 310.273C115.333 310.626 115.161 310.923 115.204 310.955Z" fill="#263238"/>
<path d="M113.886 310.256C113.886 310.256 114.187 310.136 114.48 309.903C114.772 309.67 114.978 309.453 114.944 309.413C114.91 309.373 114.643 309.534 114.351 309.766C114.058 309.999 113.852 310.216 113.886 310.256Z" fill="#263238"/>
<path d="M113.085 308.769C113.36 308.867 113.653 308.911 113.946 308.898C114.235 308.938 114.53 308.916 114.808 308.833C114.533 308.737 114.24 308.693 113.946 308.705C113.473 308.689 113.085 308.713 113.085 308.769Z" fill="#263238"/>
<path d="M112.818 307.732C113.1 307.913 113.432 308.014 113.774 308.022C114.11 308.083 114.458 308.049 114.773 307.925C114.45 307.863 114.121 307.834 113.791 307.837C113.472 307.768 113.146 307.733 112.818 307.732Z" fill="#263238"/>
<path d="M115.815 309.622C116.166 309.678 116.524 309.678 116.875 309.622C117.262 309.586 117.645 309.519 118.02 309.421C118.247 309.366 118.466 309.287 118.675 309.188C118.804 309.125 118.903 309.019 118.95 308.89C118.971 308.817 118.968 308.74 118.942 308.669C118.916 308.597 118.868 308.534 118.804 308.488C118.404 308.29 117.942 308.228 117.498 308.311C117.054 308.395 116.654 308.619 116.367 308.947C116.197 309.141 116.071 309.365 115.996 309.606C115.977 309.694 115.977 309.784 115.996 309.872C116.12 309.579 116.294 309.307 116.513 309.067C116.759 308.813 117.08 308.631 117.435 308.544C117.859 308.428 118.316 308.468 118.709 308.657C118.873 308.778 118.795 308.963 118.606 309.067C118.412 309.156 118.211 309.229 118.003 309.284C117.639 309.389 117.268 309.47 116.892 309.526C116.263 309.598 115.815 309.59 115.815 309.622Z" fill="#263238"/>
<path d="M116.082 309.678C116.22 309.475 116.272 309.232 116.229 308.995C116.206 308.731 116.115 308.477 115.962 308.255C115.878 308.106 115.755 307.979 115.604 307.886C115.454 307.793 115.28 307.737 115.101 307.724C114.991 307.742 114.894 307.799 114.829 307.883C114.765 307.968 114.739 308.072 114.756 308.174C114.778 308.335 114.837 308.488 114.928 308.625C115.058 308.849 115.22 309.054 115.411 309.236C115.571 309.419 115.774 309.565 116.005 309.662C116.005 309.662 115.798 309.477 115.514 309.148C115.351 308.961 115.209 308.759 115.092 308.544C114.954 308.327 114.859 307.949 115.135 307.909C115.411 307.869 115.66 308.15 115.815 308.351C115.962 308.549 116.059 308.774 116.1 309.011C116.119 309.233 116.113 309.457 116.082 309.678Z" fill="#263238"/>
<path d="M98.1766 308.118C98.1766 308.158 98.6589 308.118 99.3996 308.199C100.375 308.323 101.291 308.704 102.042 309.299C102.793 309.893 103.346 310.675 103.637 311.552C103.749 311.921 103.841 312.294 103.913 312.67C103.935 312.567 103.935 312.46 103.913 312.357C103.883 312.085 103.832 311.816 103.758 311.552C103.491 310.633 102.931 309.811 102.153 309.195C101.375 308.578 100.415 308.197 99.3996 308.102C99.0961 308.073 98.7902 308.073 98.4866 308.102C98.383 308.096 98.2788 308.101 98.1766 308.118Z" fill="#263238"/>
<path d="M100.106 301.724C99.9607 302.778 99.8773 303.839 99.856 304.901C99.7768 305.972 99.7624 307.046 99.813 308.118C99.9586 307.064 100.042 306.004 100.063 304.941C100.147 303.871 100.162 302.796 100.106 301.724Z" fill="#263238"/>
<path d="M106.074 311.303C106.861 311.501 107.672 311.601 108.486 311.601C109.297 311.659 110.114 311.621 110.915 311.488C110.915 311.432 109.83 311.488 108.495 311.416C107.16 311.343 106.083 311.255 106.074 311.303Z" fill="#263238"/>
<path d="M102.827 311.207C102.827 311.207 102.905 311.424 103.008 311.656C103.111 311.889 103.163 312.106 103.223 312.098C103.283 312.09 103.318 311.857 103.223 311.592C103.128 311.327 102.862 311.175 102.827 311.207Z" fill="#263238"/>
<path d="M101.622 309.751C101.622 309.751 101.682 309.951 101.845 310.12C102.009 310.288 102.181 310.392 102.224 310.352C102.267 310.312 102.163 310.16 101.991 309.991C101.819 309.823 101.691 309.719 101.622 309.751Z" fill="#263238"/>
<path d="M99.8991 309.051C99.8991 309.107 100.131 309.107 100.372 309.195C100.613 309.283 100.785 309.404 100.828 309.372C100.871 309.34 100.742 309.123 100.441 309.019C100.14 308.915 99.8991 309.003 99.8991 309.051Z" fill="#263238"/>
<path d="M98.6761 308.705C98.6761 308.753 98.7535 308.834 98.8825 308.89C99.0115 308.946 99.1491 308.946 99.1663 308.89C99.1835 308.834 99.0975 308.753 98.9599 308.705C98.8223 308.657 98.7019 308.657 98.6761 308.705Z" fill="#263238"/>
<g opacity="0.3">
<path d="M98.211 307.708L114.782 307.925L114.816 306.059L98.1163 306.719L98.211 307.708Z" fill="black"/>
</g>
<path d="M140.887 310.636V302.367L124.299 302.311L124.204 314.376L125.229 314.44C129.803 314.689 148.484 315.421 151.576 314.569C154.969 313.644 140.887 310.636 140.887 310.636Z" fill="#BA68C8"/>
<g opacity="0.4">
<path d="M147.76 312.333C147.76 312.333 152.695 313.684 152.067 314.44C151.438 315.196 132.516 315.124 124.17 314.44V314.094L146.253 314.36C146.253 314.36 146.796 312.373 147.76 312.333Z" fill="white"/>
</g>
<path d="M123.946 314.046H124.23L125.048 314.094L128.063 314.231C130.604 314.327 134.092 314.415 138.01 314.431C141.929 314.447 145.417 314.431 147.967 314.327L150.981 314.223L151.799 314.174H152.084H150.981L147.967 314.215C145.383 314.215 141.895 314.287 138.01 314.271C134.126 314.255 130.612 314.182 128.063 314.126L125.048 314.046H123.946Z" fill="#263238"/>
<path d="M146.287 314.569C146.417 314.101 146.607 313.649 146.856 313.225C147.154 312.83 147.501 312.468 147.889 312.148C147.371 312.324 146.941 312.673 146.683 313.129C146.363 313.545 146.221 314.059 146.287 314.569Z" fill="#263238"/>
<path d="M141.404 312.226C141.447 312.226 141.679 311.985 141.928 311.632C142.178 311.279 142.324 310.973 142.281 310.941C142.238 310.909 141.997 311.182 141.756 311.536C141.516 311.889 141.352 312.194 141.404 312.226Z" fill="#263238"/>
<path d="M140.06 311.559C140.06 311.559 140.361 311.431 140.645 311.198C140.929 310.965 141.135 310.732 141.101 310.692C141.066 310.652 140.8 310.82 140.516 311.053C140.232 311.286 140.026 311.519 140.06 311.559Z" fill="#263238"/>
<path d="M139.216 310.097C139.492 310.187 139.786 310.223 140.078 310.201C140.367 310.234 140.662 310.206 140.939 310.121C140.939 310.064 140.56 310.016 140.078 310.016C139.595 310.016 139.216 310.024 139.216 310.097Z" fill="#263238"/>
<path d="M138.932 309.059C139.218 309.235 139.554 309.327 139.897 309.324C140.235 309.387 140.586 309.344 140.896 309.204C140.571 309.157 140.242 309.136 139.914 309.139C139.59 309.086 139.261 309.059 138.932 309.059Z" fill="#263238"/>
<path d="M141.972 310.877C142.322 310.939 142.682 310.939 143.032 310.877C143.418 310.837 143.8 310.759 144.169 310.644C144.397 310.589 144.616 310.508 144.823 310.402C144.951 310.332 145.046 310.221 145.09 310.089C145.106 310.015 145.099 309.939 145.07 309.869C145.041 309.8 144.991 309.739 144.926 309.695C144.521 309.506 144.058 309.456 143.616 309.551C143.175 309.646 142.782 309.882 142.506 310.217C142.346 310.415 142.226 310.638 142.153 310.877C142.13 310.967 142.13 311.06 142.153 311.15C142.268 310.859 142.434 310.587 142.644 310.346C142.886 310.084 143.203 309.892 143.557 309.791C143.975 309.663 144.43 309.695 144.823 309.88C144.995 310 144.926 310.185 144.737 310.29C144.548 310.387 144.349 310.465 144.143 310.523C143.782 310.636 143.414 310.724 143.04 310.788C142.377 310.829 141.972 310.829 141.972 310.877Z" fill="#263238"/>
<path d="M142.248 310.933C142.373 310.723 142.415 310.478 142.369 310.242C142.339 309.98 142.242 309.728 142.084 309.51C141.996 309.366 141.871 309.244 141.721 309.156C141.571 309.068 141.4 309.015 141.223 309.003C141.169 309.013 141.118 309.032 141.072 309.06C141.026 309.089 140.987 309.125 140.956 309.168C140.926 309.211 140.905 309.259 140.894 309.309C140.884 309.359 140.884 309.411 140.896 309.461C140.92 309.619 140.982 309.771 141.077 309.904C141.215 310.124 141.382 310.327 141.576 310.507C141.903 310.813 142.17 310.933 142.179 310.909C142.188 310.885 141.972 310.732 141.679 310.418C141.51 310.231 141.36 310.029 141.232 309.815C141.085 309.606 140.99 309.228 141.232 309.188C141.473 309.148 141.766 309.413 141.929 309.606C142.08 309.8 142.183 310.022 142.231 310.258C142.257 310.482 142.263 310.708 142.248 310.933Z" fill="#263238"/>
<path d="M124.299 309.815C124.299 309.815 124.773 309.775 125.522 309.863C126.499 309.969 127.424 310.328 128.192 310.901C128.955 311.48 129.53 312.246 129.854 313.113C130.104 313.772 130.13 314.223 130.164 314.215C130.181 314.111 130.181 314.005 130.164 313.901C130.132 313.629 130.075 313.36 129.992 313.097C129.698 312.185 129.115 311.377 128.321 310.78C127.526 310.183 126.556 309.824 125.539 309.751C125.236 309.725 124.93 309.725 124.626 309.751C124.411 309.775 124.299 309.799 124.299 309.815Z" fill="#263238"/>
<path d="M126.046 303.373C125.927 304.441 125.875 305.516 125.892 306.59C125.834 307.662 125.848 308.737 125.935 309.807C126.049 308.738 126.101 307.664 126.089 306.59C126.147 305.518 126.133 304.443 126.046 303.373Z" fill="#263238"/>
<path d="M132.283 312.807C133.076 312.982 133.889 313.06 134.703 313.04C135.518 313.078 136.334 313.019 137.132 312.863C137.132 312.815 136.038 312.863 134.703 312.863C133.368 312.863 132.292 312.751 132.283 312.807Z" fill="#263238"/>
<path d="M129.027 312.783C129.027 312.823 129.122 313 129.225 313.233C129.328 313.466 129.397 313.674 129.457 313.666C129.518 313.658 129.543 313.426 129.414 313.16C129.285 312.895 129.07 312.751 129.027 312.783Z" fill="#263238"/>
<path d="M127.813 311.36C127.77 311.36 127.882 311.552 128.054 311.72C128.226 311.889 128.389 311.985 128.432 311.945C128.475 311.905 128.363 311.752 128.191 311.584C128.019 311.416 127.856 311.319 127.813 311.36Z" fill="#263238"/>
<path d="M126.065 310.7C126.065 310.756 126.297 310.756 126.538 310.836C126.778 310.916 126.959 311.037 127.002 311.004C127.045 310.972 126.907 310.756 126.606 310.66C126.305 310.563 126.047 310.652 126.065 310.7Z" fill="#263238"/>
<path d="M124.816 310.386C124.816 310.434 124.893 310.515 125.031 310.571C125.168 310.627 125.297 310.619 125.315 310.571C125.332 310.523 125.237 310.442 125.1 310.394C124.962 310.346 124.876 310.338 124.816 310.386Z" fill="#263238"/>
<g opacity="0.3">
<path d="M124.325 309.397L140.896 309.212L140.879 307.346L124.196 308.416L124.325 309.397Z" fill="black"/>
</g>
<path d="M104.266 169.103L110.906 187.771C112.698 192.814 117.417 193.683 123.11 193.683H160.05V185.937L126.306 181.441L118.261 162.251L104.266 169.103Z" fill="#FFBE9D"/>
<path d="M164.116 184.337L167.044 183.042C167.044 183.042 170.205 177.34 170.928 177.573C171.652 177.806 171.867 179.479 170.601 182.093L174.494 181.055C174.494 181.055 182.935 184.699 182.564 185.189C182.194 185.68 181.496 186.846 179.662 185.994C177.827 185.141 175.407 184.08 175.407 184.08L170.859 185.294L176.725 185.994L182.245 190.675C182.245 190.675 180.428 191.946 178.869 190.602L164.538 193.474L160.05 193.715V185.97L164.116 184.337Z" fill="#FFBE9D"/>
<path d="M178.869 190.578C178.809 190.578 178.542 190.216 178.008 189.693C177.704 189.394 177.352 189.139 176.966 188.937C176.48 188.72 175.953 188.592 175.416 188.559C173.959 188.467 172.516 188.238 171.109 187.876C172.568 187.829 174.028 187.921 175.467 188.149C176.07 188.184 176.658 188.34 177.19 188.608C177.604 188.841 177.969 189.144 178.266 189.5C178.566 189.803 178.774 190.175 178.869 190.578Z" fill="#EB996E"/>
<path d="M176.63 191.109C176.57 191.109 176.527 190.836 176.13 190.755C175.734 190.675 175.063 190.61 174.408 190.546C173.564 190.533 172.723 190.455 171.893 190.313C172.722 190.042 173.613 189.979 174.477 190.128C175.089 190.177 175.693 190.293 176.277 190.474C176.379 190.509 176.471 190.566 176.546 190.64C176.62 190.714 176.676 190.803 176.708 190.9C176.708 191.045 176.656 191.117 176.63 191.109Z" fill="#EB996E"/>
<path d="M73.0791 92.3173L71.0723 130.264L88.4701 131.792L89.4347 122.623C89.4347 122.623 95.5669 124.039 97.4273 118.738C98.6245 115.352 99.6838 88.8266 99.6838 88.8266L73.0791 92.3173Z" fill="#FFBE9D"/>
<path d="M101.182 93.218C101.665 96.773 96.3507 98.8481 96.3507 98.8481L95.4205 107.253C94.589 107.198 93.7543 107.198 92.9228 107.253C93.3707 103.312 87.9274 104.084 87.3762 106.77C86.825 109.457 89.96 111.081 89.96 111.081C87.7896 114.194 86.9025 115.843 83.8191 118.762C80.4774 121.923 78.6515 122.181 75.2064 122.084L71.4082 121.923C71.4082 121.923 70.0474 118.891 69.0569 111.725C68.5832 108.282 65.6979 103.762 66.5248 98.1644C68.8502 82.2474 85.1799 83.9284 85.1799 83.9284C93.7152 84.0973 100.063 84.982 101.182 93.218Z" fill="#263238"/>
<path d="M88.7025 84.3386C92.3888 84.4271 96.2129 84.7005 99.4512 86.3493C102.69 87.9981 105.187 91.4003 104.524 94.7864L102.681 95.1001L101.923 93.8293C101.923 94.5049 101.923 95.1805 101.923 95.8561L98.6847 96.7006C98.1976 94.1186 97.2236 91.6377 95.8081 89.3735" fill="#263238"/>
<path d="M73.7681 101.8C73.64 101.617 73.544 101.416 73.4839 101.205C73.2752 100.642 73.1196 100.063 73.0188 99.4754C72.6688 97.5231 72.8145 95.5213 73.4443 93.6312C74.0741 91.7411 75.1703 90.0155 76.6447 88.5933C77.0792 88.1599 77.5549 87.7642 78.0658 87.411C78.2446 87.265 78.4484 87.148 78.6687 87.0651C78.7118 87.1214 77.9194 87.6764 76.8773 88.7863C75.5234 90.2321 74.5057 91.9247 73.8887 93.7569C73.2961 95.5955 73.1144 97.5283 73.3547 99.4352C73.5183 100.907 73.8456 101.776 73.7681 101.8Z" fill="#455A64"/>
<path d="M77.196 100.473C76.862 99.861 76.6325 99.2043 76.5155 98.5264C76.1333 96.906 76.02 95.2405 76.1796 93.588C76.3293 91.9301 76.7475 90.303 77.4199 88.7622C77.6626 88.1113 78.0143 87.5005 78.462 86.9525C77.535 89.0832 76.918 91.3203 76.6275 93.6041C76.4881 95.9071 76.6793 98.2172 77.196 100.473Z" fill="#455A64"/>
<path d="M99.4082 94.5853C99.3221 94.5853 99.1756 93.6041 98.4694 92.1724C97.5623 90.2848 96.1082 88.6715 94.2713 87.5146C92.4344 86.3578 90.2878 85.7034 88.0738 85.6254C86.3513 85.5531 85.3264 85.7943 85.3091 85.7219C85.5361 85.615 85.7806 85.5443 86.0326 85.5128C86.7075 85.3879 87.3945 85.3286 88.0824 85.3359C90.3815 85.3328 92.6285 85.9744 94.5327 87.1775C96.4368 88.3806 97.9102 90.0899 98.7622 92.0839C99.0223 92.6776 99.2157 93.2948 99.3393 93.9258C99.4012 94.1406 99.4244 94.3634 99.4082 94.5853Z" fill="#455A64"/>
<path d="M74.3107 81.2662C75.2835 81.4583 76.1613 81.9445 76.8084 82.6496C77.5637 83.2543 78.0794 84.0786 78.2725 84.9901C78.152 85.0383 77.5921 83.9606 76.4897 82.9391C75.3873 81.9177 74.2504 81.3868 74.3107 81.2662Z" fill="#263238"/>
<path d="M78.3673 81.282C78.4965 81.3222 78.2295 82.1748 78.2811 83.2284C78.3328 84.282 78.6429 85.1024 78.5223 85.1587C78.0379 84.6269 77.7912 83.9415 77.8333 83.2445C77.7304 82.5503 77.922 81.8461 78.3673 81.282Z" fill="#455A64"/>
<path d="M101.139 165.034L103.973 174.018L122.008 166.401C121.362 164.519 118.373 156.138 112.672 142.835C111.111 139.188 108.571 135.978 105.296 133.514C102.021 131.05 98.1215 129.416 93.9735 128.768C88.2876 127.799 82.5269 127.261 76.7481 127.159C66.6367 127.264 51.7711 133.167 49.7558 142.441C48.2227 149.503 49.6955 161.977 49.6955 177.13L51.0132 206.085L102.827 207.694L101.139 165.034Z" fill="#BA68C8"/>
<g opacity="0.3">
<path d="M49.7213 170.439C56.0259 171.645 62.494 170.439 68.9191 170.077C72.8121 169.859 77.1357 169.465 80.219 171.685C82.665 173.455 83.6641 176.439 84.3532 179.254C87.0403 189.975 87.5226 197.165 88.1255 208.16L56.9388 209.93L49.7213 170.439Z" fill="black"/>
</g>
<path d="M111.156 140.06C111.156 140.18 97.5479 140.269 80.7703 140.269C63.9926 140.269 50.3931 140.18 50.3931 140.06C50.3931 139.94 63.9926 139.851 80.7703 139.851C97.5479 139.851 111.156 139.948 111.156 140.06Z" fill="#FAFAFA"/>
<path d="M114.937 148.191C114.937 148.304 100.14 148.4 81.9071 148.4C63.6739 148.4 48.8772 148.304 48.8772 148.191C48.8772 148.079 63.6567 147.983 81.9071 147.983C100.157 147.983 114.937 148.079 114.937 148.191Z" fill="#FAFAFA"/>
<path d="M119.708 158.39C119.708 158.51 103.93 158.599 84.4651 158.599C65.0003 158.599 49.2218 158.51 49.2218 158.39C49.2218 158.269 65.0003 158.181 84.4651 158.181C103.93 158.181 119.708 158.277 119.708 158.39Z" fill="#FAFAFA"/>
<path d="M100.76 169.393C100.76 169.505 95.8253 169.601 89.7533 169.601C83.6813 169.601 78.7376 169.505 78.7376 169.393C78.7376 169.28 83.6641 169.184 89.7533 169.184C95.8425 169.184 100.76 169.272 100.76 169.393Z" fill="#FAFAFA"/>
<path d="M101.768 181.336C101.768 181.449 96.6004 181.505 90.2442 181.457C83.888 181.409 78.7204 181.28 78.7204 181.16C78.7204 181.039 83.888 180.991 90.2442 181.039C96.6004 181.087 101.768 181.2 101.768 181.336Z" fill="#FAFAFA"/>
<path d="M102.268 191.028C101.969 191.078 101.665 191.092 101.363 191.068L98.8914 191.02C96.8072 190.98 93.9305 190.923 90.7524 190.923C87.5743 190.923 84.7235 190.972 82.6134 191.012L80.1415 191.06C79.8385 191.097 79.5316 191.097 79.2286 191.06C79.5226 190.98 79.8267 190.937 80.1329 190.931C80.71 190.875 81.554 190.819 82.5962 190.763C84.6804 190.642 87.5657 190.546 90.7524 190.546C93.9391 190.546 96.8244 190.65 98.9001 190.771C99.9422 190.827 100.786 190.891 101.372 190.948C101.673 190.941 101.974 190.967 102.268 191.028Z" fill="#FAFAFA"/>
<path d="M102.104 198.878C102.104 198.991 97.0225 199.087 90.7524 199.087C84.4823 199.087 79.4094 198.991 79.4094 198.878C79.4094 198.766 84.4823 198.669 90.7524 198.669C97.0225 198.669 102.104 198.758 102.104 198.878Z" fill="#FAFAFA"/>
<path d="M103.646 132.089C103.646 132.21 93.6721 132.298 81.3731 132.298C69.0741 132.298 59.092 132.21 59.092 132.089C59.092 131.969 69.0655 131.881 81.3731 131.881C93.6807 131.881 103.646 131.977 103.646 132.089Z" fill="#FAFAFA"/>
<path d="M102.483 133.602C102.483 133.65 101.966 133.674 101.105 133.988C99.9097 134.477 98.8775 135.258 98.1163 136.248C97.0176 137.735 96.3989 139.485 96.3335 141.291C96.2678 143.512 96.4526 145.733 96.8847 147.918C97.6093 151.92 98.5755 155.881 99.7786 159.782C100.201 161.237 100.554 162.436 100.821 163.345C100.966 163.776 101.078 164.217 101.157 164.664C100.95 164.255 100.783 163.829 100.657 163.393C100.364 162.589 99.9508 161.358 99.4685 159.862C98.187 155.968 97.1801 152 96.4541 147.983C96.0223 145.765 95.849 143.511 95.9373 141.259C96.027 139.388 96.7039 137.584 97.8838 136.071C98.6907 135.056 99.7942 134.279 101.062 133.835C101.406 133.726 101.761 133.65 102.121 133.61C102.241 133.591 102.363 133.588 102.483 133.602Z" fill="#263238"/>
<path d="M121.431 164.101C120.628 164.624 119.778 165.082 118.89 165.468C117.288 166.272 115.04 167.278 112.525 168.339C110.01 169.401 107.702 170.286 106.014 170.889C105.117 171.251 104.189 171.544 103.241 171.766C104.094 171.322 104.98 170.937 105.894 170.616C107.547 169.94 109.838 169.007 112.345 167.961C114.851 166.916 117.107 165.91 118.744 165.203C119.612 164.779 120.509 164.411 121.431 164.101Z" fill="#263238"/>
<path d="M67.0071 206.559L128.915 208.602C133.746 208.764 138.316 210.687 141.646 213.959C144.975 217.23 146.799 221.591 146.727 226.104L144.143 308.673L120.225 307.933L122.008 230.624L66.9984 229.273L67.0071 206.559Z" fill="#263238"/>
<path d="M41.4273 206.559L103.344 208.602C108.175 208.764 112.745 210.687 116.075 213.959C119.404 217.23 121.228 221.591 121.155 226.104L118.572 308.673L94.3354 306.879L96.4541 230.624L41.4445 229.273L41.4273 206.559Z" fill="#263238"/>
<path d="M87.7638 236.552H81.6746V304.684H87.7638V236.552Z" fill="#455A64"/>
<path d="M30.5752 170.422V220.578C30.5752 223.738 31.9191 226.767 34.3112 229.001C36.7033 231.235 39.9477 232.49 43.3307 232.49H79.0994V170.422C79.0994 169.725 78.9523 169.035 78.6667 168.391C78.381 167.747 77.9623 167.162 77.4345 166.669C76.9066 166.176 76.28 165.785 75.5903 165.518C74.9006 165.251 74.1615 165.114 73.415 165.114H36.2596C35.5131 165.114 34.774 165.251 34.0843 165.518C33.3946 165.785 32.768 166.176 32.2402 166.669C31.7123 167.162 31.2936 167.747 31.0079 168.391C30.7223 169.035 30.5752 169.725 30.5752 170.422Z" fill="#455A64"/>
<path d="M127.227 236.552H40.1354C40.1354 234.205 41.1335 231.955 42.9103 230.296C44.687 228.637 47.0967 227.705 49.6094 227.705H117.796C120.309 227.705 122.719 228.637 124.496 230.296C126.272 231.955 127.27 234.205 127.27 236.552H127.227Z" fill="#455A64"/>
<path d="M79.0994 226.554C79.1102 226.683 79.1102 226.812 79.0994 226.94C79.0925 227.309 79.0434 227.676 78.953 228.034C78.6658 229.17 78.0307 230.203 77.1253 231.007C76.2198 231.811 75.0832 232.352 73.8543 232.562C72.7103 232.677 71.5591 232.717 70.4092 232.683H62.5802C57.025 232.683 51.9951 232.683 48.3606 232.635L44.0542 232.578L42.8829 232.538C42.744 232.536 42.6057 232.523 42.4695 232.498C42.6038 232.462 42.7432 232.446 42.8829 232.45L44.0542 232.41L48.3606 232.337C51.9951 232.297 57.025 232.273 62.5802 232.265H70.4005C71.5293 232.307 72.6598 232.283 73.7853 232.192C74.7392 232.041 75.6417 231.683 76.4208 231.147C77.5723 230.354 78.4013 229.22 78.7721 227.93C79.0736 227.085 79.0477 226.554 79.0994 226.554Z" fill="#263238"/>
<path d="M90.0634 236.728C88.2901 236.94 86.5008 237.01 84.7148 236.937C82.9318 237.009 81.1453 236.94 79.375 236.728C81.1458 236.522 82.9318 236.452 84.7148 236.52C86.5008 236.452 88.2897 236.522 90.0634 236.728Z" fill="#263238"/>
<path d="M116.556 232.924C116.3 232.137 116.122 231.329 116.022 230.512C115.729 228.967 115.342 226.723 114.877 223.957C114.412 221.19 114.093 217.836 112.456 214.514C111.599 212.786 110.514 211.165 109.227 209.688C107.819 208.122 106.184 206.746 104.369 205.602C102.561 204.446 100.574 203.553 98.478 202.956C96.5259 202.374 94.4971 202.047 92.4491 201.983C88.5131 201.903 84.913 201.919 81.9157 201.862C78.9185 201.806 76.4811 201.782 74.8016 201.734C73.9366 201.752 73.0716 201.696 72.2178 201.565C73.0722 201.44 73.9369 201.386 74.8016 201.404C76.4811 201.356 78.9099 201.308 81.9157 201.275C84.9216 201.243 88.4786 201.171 92.4749 201.219C96.8915 201.316 101.185 202.598 104.843 204.911C106.731 206.094 108.426 207.527 109.873 209.166C111.204 210.704 112.319 212.396 113.189 214.2C113.387 214.627 113.55 215.069 113.731 215.495L113.99 216.139C114.05 216.356 114.119 216.573 114.179 216.79C114.308 217.217 114.437 217.643 114.558 218.061C114.679 218.479 114.722 218.906 114.808 219.316C115.109 220.965 115.273 222.477 115.48 223.876C115.859 226.651 116.16 228.911 116.341 230.463C116.492 231.276 116.564 232.1 116.556 232.924Z" fill="#455A64"/>
<path d="M111.354 310.829H110.493C110.556 307.614 109.932 304.42 108.658 301.433C107.384 298.446 105.485 295.725 103.073 293.431C100.661 291.137 97.7829 289.315 94.6079 288.071C91.433 286.827 88.0244 286.186 84.5814 286.186C81.1383 286.186 77.7298 286.827 74.5548 288.071C71.3799 289.315 68.5022 291.137 66.0899 293.431C63.6776 295.725 61.779 298.446 60.505 301.433C59.231 304.42 58.6072 307.614 58.67 310.829H57.8087C57.7449 307.508 58.3903 304.208 59.7071 301.123C61.0239 298.037 62.9857 295.227 65.4781 292.858C67.9705 290.488 70.9435 288.606 74.2234 287.321C77.5034 286.036 81.0246 285.375 84.5814 285.375C88.1382 285.375 91.6594 286.036 94.9393 287.321C98.2192 288.606 101.192 290.488 103.685 292.858C106.177 295.227 108.139 298.037 109.456 301.123C110.772 304.208 111.418 307.508 111.354 310.829Z" fill="#455A64"/>
<path d="M62.2529 312.099C62.2529 312.841 62.0174 313.565 61.5764 314.182C61.1354 314.798 60.5086 315.278 59.7752 315.562C59.0418 315.846 58.2349 315.92 57.4563 315.775C56.6778 315.631 55.9626 315.274 55.4013 314.75C54.84 314.225 54.4578 313.558 54.3029 312.831C54.148 312.104 54.2275 311.35 54.5313 310.665C54.835 309.98 55.3495 309.395 56.0095 308.983C56.6695 308.571 57.4455 308.351 58.2393 308.351C58.7667 308.35 59.2891 308.447 59.7766 308.635C60.264 308.822 60.7069 309.099 61.0798 309.447C61.4528 309.795 61.7483 310.209 61.9496 310.664C62.1509 311.119 62.254 311.607 62.2529 312.099Z" fill="#263238"/>
<path d="M115.135 311.585C115.135 312.326 114.9 313.051 114.459 313.667C114.018 314.283 113.391 314.764 112.657 315.047C111.924 315.331 111.117 315.405 110.339 315.261C109.56 315.116 108.845 314.759 108.284 314.235C107.722 313.711 107.34 313.043 107.185 312.316C107.03 311.589 107.11 310.835 107.414 310.15C107.717 309.466 108.232 308.88 108.892 308.468C109.552 308.056 110.328 307.837 111.122 307.837C112.186 307.837 113.207 308.232 113.96 308.934C114.712 309.637 115.135 310.591 115.135 311.585Z" fill="#263238"/>
<path d="M111.096 304.683C111.096 304.804 99.4426 304.9 85.0766 304.9C70.7105 304.9 59.0575 304.804 59.0575 304.683C59.0575 304.563 70.7019 304.475 85.0766 304.475C99.4512 304.475 111.096 304.571 111.096 304.683Z" fill="#455A64"/>
<path d="M22.2123 148.176C22.8474 148.551 23.3956 149.041 23.8246 149.617C24.2536 150.193 24.5547 150.843 24.71 151.53C25.0045 152.913 24.9574 154.34 24.5722 155.704C23.9176 158.342 21.9884 160.868 19.9213 162.814C17.7595 160.586 17.6303 157.095 17.682 155.318C17.7681 152.511 19.7577 147.484 22.2123 148.176Z" fill="#BA68C8"/>
<path d="M22.1778 167.543C22.1126 166.763 22.2685 165.981 22.6299 165.275C22.9912 164.569 23.5452 163.964 24.2362 163.522C24.9384 163.089 25.7255 162.791 26.552 162.645C27.3784 162.498 28.2278 162.507 29.0508 162.669C29.4369 162.707 29.8096 162.823 30.1428 163.009C30.476 163.195 30.7617 163.447 30.98 163.747C31.1321 164.055 31.1931 164.396 31.1568 164.734C31.1204 165.072 30.988 165.395 30.7733 165.669C30.3288 166.217 29.7335 166.642 29.0508 166.9C26.8028 167.897 24.4343 168.508 22.1606 167.559" fill="#BA68C8"/>
<path d="M18.5433 173.431C18.6627 172.841 18.8475 172.264 19.0945 171.71C19.3352 171.093 19.6563 170.507 20.0505 169.964C20.5009 169.286 21.0017 168.638 21.5492 168.026C22.5563 166.898 23.8462 166.019 25.3043 165.468C25.7479 165.316 26.2067 165.206 26.6737 165.138C26.8448 165.112 27.0194 165.112 27.1905 165.138C27.1905 165.195 26.467 165.267 25.3904 165.693C24.0039 166.285 22.7767 167.159 21.7989 168.251C21.2587 168.852 20.7582 169.483 20.3003 170.141C19.9059 170.665 19.5711 171.226 19.3012 171.814C19.0901 172.369 18.8368 172.909 18.5433 173.431Z" fill="#263238"/>
<path d="M21.0582 152.125C21.0903 152.427 21.0903 152.732 21.0582 153.034C21.0582 153.613 20.9721 154.457 20.8946 155.495C20.7309 157.578 20.4639 160.449 20.1022 163.618C19.7405 166.787 19.3098 169.634 18.9567 171.661C18.7758 172.691 18.6294 173.519 18.5089 174.074C18.4644 174.374 18.3924 174.67 18.2935 174.959C18.2906 174.654 18.3195 174.35 18.3797 174.05C18.4744 173.423 18.5864 172.594 18.7242 171.637C19.017 169.57 19.4046 166.715 19.7749 163.546C20.1453 160.377 20.4295 157.57 20.6362 155.447C20.7482 154.449 20.8429 153.621 20.9118 152.985C20.9381 152.696 20.9871 152.408 21.0582 152.125Z" fill="#263238"/>
<path d="M18.4054 168.179C18.0732 166.551 17.3315 165.02 16.2413 163.713C15.1512 162.405 13.7438 161.358 12.1354 160.658C11.2741 160.313 10.2492 160.095 9.5946 160.658C8.94003 161.221 9.1123 162.267 9.45681 163.031C10.2075 164.644 11.4533 166.013 13.0369 166.965C14.6205 167.917 16.4707 168.409 18.3538 168.38" fill="#BA68C8"/>
<path d="M12.7641 163.055C12.9271 163.102 13.0811 163.173 13.2206 163.264C14.9617 164.198 16.4776 165.458 17.6734 166.964C18.1442 167.631 18.4962 168.364 18.7155 169.136C18.8856 169.766 18.9638 170.416 18.9481 171.066C18.936 171.501 18.8812 171.935 18.7844 172.361C18.7619 172.522 18.7155 172.679 18.6466 172.827C18.5777 172.827 18.7328 172.144 18.7155 171.066C18.6988 170.439 18.6034 169.815 18.4313 169.208C18.2006 168.472 17.8521 167.772 17.3978 167.133C16.5279 165.983 15.4666 164.97 14.2541 164.133C13.7341 163.803 13.2365 163.443 12.7641 163.055Z" fill="#263238"/>
<path d="M18.1212 193.691C15.2651 193.689 12.5268 192.628 10.5081 190.741C8.4893 188.854 7.35532 186.296 7.35532 183.629V173.575H28.8872V183.629C28.8872 186.296 27.7532 188.854 25.7344 190.741C23.7157 192.628 20.9773 193.689 18.1212 193.691Z" fill="#263238"/>
<path d="M28.8958 178.522C28.8089 178.625 28.7107 178.719 28.6029 178.803L27.7417 179.551L24.4602 182.141L24.3827 182.198L24.288 182.149L18.0782 178.667H18.259L12.411 182.141L12.3249 182.198L12.2387 182.133L8.66446 179.519L7.68259 178.779C7.56099 178.696 7.45105 178.599 7.35532 178.49C7.49564 178.543 7.62635 178.616 7.74289 178.707C8.01849 178.892 8.363 179.125 8.77641 179.391L12.4196 181.916H12.2473L18.0265 178.361L18.1212 178.305L18.216 178.353L24.4257 181.908H24.2535L27.5866 179.391L28.5254 178.699C28.7666 178.586 28.8871 178.506 28.8958 178.522Z" fill="#E0E0E0"/>
<path d="M28.8956 176.511C28.8087 176.614 28.7106 176.709 28.6028 176.793L27.7415 177.541L24.4945 180.155L24.417 180.211L24.3223 180.163L18.078 176.656H18.2589L12.4453 180.171L12.3592 180.227L12.273 180.163L8.69876 177.549L7.71691 176.809C7.59531 176.725 7.48535 176.628 7.38962 176.519C7.52994 176.573 7.66065 176.646 7.77719 176.736L8.81073 177.42L12.4539 179.946H12.2817L18.0608 176.391L18.1555 176.334L18.2503 176.382L24.4601 179.937H24.2878L27.6209 177.42L28.5597 176.728C28.7664 176.576 28.887 176.511 28.8956 176.511Z" fill="#E0E0E0"/>
<path d="M28.8956 180.533C28.8956 180.533 28.8009 180.645 28.6028 180.822L27.7415 181.562L24.4945 184.176L24.417 184.24L24.3222 184.184L18.078 180.718H18.2589L12.4453 184.232L12.3591 184.289L12.273 184.232C10.8347 183.171 9.62029 182.286 8.69873 181.618L7.71688 180.87C7.49295 180.694 7.38098 180.597 7.38959 180.581C7.52768 180.638 7.65781 180.711 7.77716 180.798C8.05277 180.991 8.39729 181.216 8.8107 181.49L12.4539 184.007H12.2816L18.0608 180.452L18.1555 180.396L18.2503 180.452L24.46 183.999H24.2878L27.6209 181.474L28.5597 180.79C28.6591 180.691 28.7721 180.604 28.8956 180.533Z" fill="#E0E0E0"/>
<path d="M307.948 217.305C303.487 217.981 301.489 223.096 301.919 227.303C302.35 231.509 304.167 235.627 303.642 239.817C303.013 245.15 298.698 249.654 298.199 254.995C297.605 261.292 302.376 266.882 303.797 273.059C304.495 276.067 304.4 279.252 305.597 282.115C306.619 284.554 308.515 286.586 310.962 287.866C313.409 289.145 316.255 289.592 319.016 289.131C321.776 288.67 324.28 287.329 326.1 285.337C327.921 283.345 328.945 280.825 328.998 278.207C329.093 273.381 325.897 268.82 326.285 263.995C326.569 260.432 328.808 257.054 328.335 253.539C327.758 249.316 323.572 246.3 322.091 242.279C320.609 238.257 322.039 233.817 321.522 229.587C320.609 222.002 316.105 216.718 307.957 217.321" fill="#BA68C8"/>
<path d="M285.159 254.037C284.393 261.067 287.743 269.319 291.593 275.408C295.511 281.523 301.415 286.313 308.448 289.081C309.232 289.386 310.214 289.644 310.877 289.145C311.113 288.904 311.29 288.618 311.396 288.307C311.501 287.996 311.533 287.667 311.488 287.343C311.545 279.882 309.01 272.604 304.263 266.602C299.516 260.6 292.813 256.197 285.159 254.053" fill="#BA68C8"/>
<g opacity="0.2">
<path d="M285.159 254.037C284.393 261.067 287.743 269.319 291.593 275.408C295.511 281.523 301.415 286.313 308.448 289.081C309.232 289.386 310.214 289.644 310.877 289.145C311.113 288.904 311.29 288.618 311.396 288.307C311.501 287.996 311.533 287.667 311.488 287.343C311.545 279.882 309.01 272.604 304.263 266.602C299.516 260.6 292.813 256.197 285.159 254.053" fill="black"/>
</g>
<path d="M317.948 303.759C317.858 303.64 317.785 303.51 317.732 303.373L317.19 302.215C316.742 301.217 316.062 299.802 315.2 297.992C312.958 293.376 310.465 288.868 307.733 284.488C304.982 280.113 301.999 275.869 298.793 271.772C297.561 270.204 296.545 268.941 295.83 268.08C295.503 267.678 295.227 267.34 295.021 267.075C294.919 266.963 294.83 266.842 294.754 266.713C294.754 266.713 294.883 266.81 295.081 267.027L295.942 267.984C296.7 268.788 297.751 270.051 299.017 271.603C305.61 279.715 311.136 288.537 315.476 297.88C316.337 299.673 316.94 301.137 317.345 302.158L317.81 303.341C317.869 303.476 317.915 303.616 317.948 303.759Z" fill="#263238"/>
<path d="M313.099 236.753C313.147 236.976 313.176 237.202 313.185 237.429C313.185 237.903 313.271 238.547 313.331 239.367C313.452 241.08 313.616 243.509 313.822 246.485C314.227 252.501 314.796 260.81 315.493 269.979C316.191 279.147 316.863 287.456 317.362 293.464C317.603 296.44 317.801 298.861 317.948 300.582C318.008 301.386 318.051 302.038 318.086 302.512C318.106 302.74 318.106 302.969 318.086 303.196C318.086 303.196 318.043 302.963 317.982 302.52C317.922 302.078 317.853 301.402 317.758 300.59C317.586 298.877 317.345 296.456 317.043 293.488C316.466 287.48 315.734 279.188 315.045 270.011C314.356 260.834 313.848 252.525 313.495 246.485C313.349 243.501 313.228 241.08 313.142 239.359C313.142 238.555 313.09 237.895 313.073 237.413C313.06 237.192 313.069 236.972 313.099 236.753Z" fill="#263238"/>
<path d="M306.174 293.737H325.027V306.662C325.025 308.903 324.07 311.051 322.373 312.635C320.676 314.218 318.375 315.108 315.975 315.108C313.66 315.109 311.432 314.28 309.751 312.793C308.07 311.305 307.064 309.272 306.941 307.113L306.174 293.737Z" fill="#263238"/>
<path d="M210.693 123.339L255.652 146.591L253.964 149.551L209.401 125.864L210.693 123.339Z" fill="#BA68C8"/>
<path d="M208.48 121.143L210.547 118.191L211.753 118.883L209.901 121.859L208.48 121.143Z" fill="#BA68C8"/>
<path d="M250.545 142.916L252.853 144.154L245.325 189.018L241.76 189.058L250.545 142.916Z" fill="#BA68C8"/>
<path d="M231.398 193.691C231.398 193.691 236.885 188.511 244.223 188.865C246.32 188.937 248.381 189.395 250.288 190.214C252.195 191.032 253.909 192.195 255.333 193.635L231.398 193.691Z" fill="#BA68C8"/>
<path d="M208.523 141.484L190.72 131.881L195.888 123.572C196.563 122.48 197.461 121.523 198.531 120.756C199.602 119.988 200.824 119.425 202.128 119.099C203.431 118.772 204.791 118.689 206.129 118.854C207.468 119.018 208.758 119.427 209.927 120.057C212.286 121.331 214.008 123.427 214.714 125.885C215.42 128.343 215.051 130.963 213.691 133.168L208.523 141.484Z" fill="#BA68C8"/>
</svg>
