<svg width="18" height="19" viewBox="0 0 18 19" fill="none" xmlns="http://www.w3.org/2000/svg">
<path d="M4.58138 17.856C4.58138 17.984 3.84538 18.048 2.37338 18.048C0.917375 18.048 0.189375 17.992 0.189375 17.88V6.096C0.189375 5.984 0.917375 5.928 2.37338 5.928C3.84538 5.928 4.58138 5.976 4.58138 6.072V17.856ZM4.58138 4.656C4.58138 4.768 3.84538 4.824 2.37338 4.824C0.917375 4.824 0.189375 4.776 0.189375 4.68V1.224C0.189375 1.064 0.917375 0.983999 2.37338 0.983999C3.84538 0.983999 4.58138 1.032 4.58138 1.128V4.656ZM11.7679 17.856C11.7679 17.968 11.1919 18.024 10.0399 18.024C8.43988 17.976 7.63988 17.888 7.63988 17.76V9.984H7.01588C6.59988 9.984 6.32788 9.632 6.19988 8.928C6.16788 8.72 6.15188 8.512 6.15188 8.304C6.15188 7.808 6.24788 7.312 6.43988 6.816C6.72788 6.112 7.17588 5.76 7.78388 5.76C8.39188 5.76 8.93588 5.904 9.41588 6.192C9.89588 6.48 10.2159 6.768 10.3759 7.056C11.3839 6.192 12.5839 5.76 13.9759 5.76C15.3679 5.76 16.3759 6.136 16.9999 6.888C17.6239 7.64 17.9359 8.872 17.9359 10.584V17.784C17.9359 17.976 17.2479 18.072 15.8719 18.072C14.5119 18.072 13.8319 17.976 13.8319 17.784V10.848C13.8319 10.048 13.5519 9.648 12.9919 9.648C12.8319 9.648 12.6079 9.72 12.3199 9.864C12.0319 9.992 11.8479 10.088 11.7679 10.152V17.856Z" fill="#D239EB"/>
</svg>
