<svg width="426" height="426" viewBox="0 0 426 426" fill="none" xmlns="http://www.w3.org/2000/svg">
<g filter="url(#filter0_d_24_137)">
<path fill-rule="evenodd" clip-rule="evenodd" d="M194.189 230.397L41.1921 179.397C38.8389 178.613 37.6623 178.221 37.6623 177.5C37.6623 176.779 38.8389 176.387 41.1921 175.603L351.205 72.265C352.861 71.7131 353.689 71.4371 354.126 71.8741C354.563 72.3111 354.287 73.139 353.735 74.7948L250.397 384.808C249.613 387.161 249.221 388.338 248.5 388.338C247.779 388.338 247.387 387.161 246.603 384.808L195.604 231.811L266.957 160.457C267.348 160.067 267.348 159.434 266.957 159.043C266.567 158.652 265.933 158.652 265.543 159.043L194.189 230.397Z" fill="white"/>
</g>
<defs>
<filter id="filter0_d_24_137" x="0" y="0" width="441.1" height="439.1" filterUnits="userSpaceOnUse" color-interpolation-filters="sRGB">
<feFlood flood-opacity="0" result="BackgroundImageFix"/>
<feColorMatrix in="SourceAlpha" type="matrix" values="0 0 0 0 0 0 0 0 0 0 0 0 0 0 0 0 0 0 127 0" result="hardAlpha"/>
<feOffset dx="11" dy="9"/>
<feGaussianBlur stdDeviation="2.05"/>
<feComposite in2="hardAlpha" operator="out"/>
<feColorMatrix type="matrix" values="0 0 0 0 0 0 0 0 0 0 0 0 0 0 0 0 0 0 0.25 0"/>
<feBlend mode="normal" in2="BackgroundImageFix" result="effect1_dropShadow_24_137"/>
<feBlend mode="normal" in="SourceGraphic" in2="effect1_dropShadow_24_137" result="shape"/>
</filter>
</defs>
</svg>
